<svg width="18" height="18" viewBox="0 0 18 18" fill="none" xmlns="http://www.w3.org/2000/svg">
<path d="M8.96268 9C9.36237 9 9.70453 8.85313 9.98916 8.55938C10.2738 8.26563 10.4161 7.9125 10.4161 7.5C10.4161 7.0875 10.2738 6.73438 9.98916 6.44063C9.70453 6.14688 9.36237 6 8.96268 6C8.56299 6 8.22083 6.14688 7.93621 6.44063C7.65158 6.73438 7.50927 7.0875 7.50927 7.5C7.50927 7.9125 7.65158 8.26563 7.93621 8.55938C8.22083 8.85313 8.56299 9 8.96268 9ZM8.96268 14.5125C10.4403 13.1125 11.5364 11.8406 12.251 10.6969C12.9656 9.55313 13.3229 8.5375 13.3229 7.65C13.3229 6.2875 12.902 5.17188 12.0603 4.30313C11.2185 3.43438 10.186 3 8.96268 3C7.73939 3 6.70686 3.43438 5.86509 4.30313C5.02332 5.17188 4.60243 6.2875 4.60243 7.65C4.60243 8.5375 4.95973 9.55313 5.67433 10.6969C6.38892 11.8406 7.48504 13.1125 8.96268 14.5125ZM8.96268 16.5C7.01268 14.7875 5.55624 13.1969 4.59335 11.7281C3.63046 10.2594 3.14902 8.9 3.14902 7.65C3.14902 5.775 3.73341 4.28125 4.9022 3.16875C6.07099 2.05625 7.42448 1.5 8.96268 1.5C10.5009 1.5 11.8544 2.05625 13.0232 3.16875C14.192 4.28125 14.7763 5.775 14.7763 7.65C14.7763 8.9 14.2949 10.2594 13.332 11.7281C12.3691 13.1969 10.9127 14.7875 8.96268 16.5Z" fill="#F80404"/>
</svg>
